<svg xmlns="http://www.w3.org/2000/svg" xmlns:xlink="http://www.w3.org/1999/xlink" viewBox="0 0 118.78 118.765">
  <defs>
    <clipPath id="clip-path">
      <rect id="Rectangle_30" data-name="Rectangle 30" width="118.78" height="118.765" fill="none"/>
    </clipPath>
  </defs>
  <g id="Group_63" data-name="Group 63" transform="translate(-37 -43)">
    <rect id="Rectangle_29" data-name="Rectangle 29" width="118.78" height="118.765" transform="translate(37 43)"/>
    <g id="Group_14" data-name="Group 14" transform="translate(37 43)">
      <g id="Group_13" data-name="Group 13" clip-path="url(#clip-path)">
        <path id="Path_9" data-name="Path 9" d="M12.367,60.539a.843.843,0,0,0,.527-.165,1.021,1.021,0,0,0,.1-.582V56.614a.773.773,0,0,0-.115-.51.876.876,0,0,0-.515-.15v-.137H14.4a3.019,3.019,0,0,1,1.057.16,1.115,1.115,0,0,1,.8,1.121,1.024,1.024,0,0,1-.357.842,1.983,1.983,0,0,1-.968.386l1.511,1.862a1,1,0,0,0,.281.249.925.925,0,0,0,.358.1v.135H15.9l-1.835-2.261-.322.017v1.447a.734.734,0,0,0,.122.517,1.035,1.035,0,0,0,.539.144v.135H12.367Zm2.509-2.545a.888.888,0,0,0,.584-.9.864.864,0,0,0-.523-.868A1.846,1.846,0,0,0,14.2,56.1a.956.956,0,0,0-.381.044q-.07.046-.07.21v1.807a3.709,3.709,0,0,0,1.131-.165" transform="translate(5.64 25.456)" fill="#d4d0ca"/>
        <path id="Path_10" data-name="Path 10" d="M18.175,60.538a1.081,1.081,0,0,0,.526-.144c.079-.068.119-.24.119-.515V56.614A.757.757,0,0,0,18.7,56.1a.855.855,0,0,0-.526-.147v-.137h3.9l.025,1.048h-.186a1.036,1.036,0,0,0-.28-.628A1.558,1.558,0,0,0,20.8,56.1h-1c-.108,0-.175.017-.2.051a.354.354,0,0,0-.038.2v1.638H20.7a.871.871,0,0,0,.6-.138,1.193,1.193,0,0,0,.207-.563h.173v1.695H21.5a1.223,1.223,0,0,0-.21-.564.86.86,0,0,0-.6-.14H19.566V60.09c0,.147.047.232.138.258a4.454,4.454,0,0,0,.827.041,2.78,2.78,0,0,0,1.1-.165,1.481,1.481,0,0,0,.638-.789h.205l-.335,1.241H18.175Z" transform="translate(8.289 25.457)" fill="#d4d0ca"/>
        <path id="Path_11" data-name="Path 11" d="M23.717,60.7v-.137a.6.6,0,0,0,.424-.213,5.957,5.957,0,0,0,.486-.992l1.529-3.6H26.3L28.13,59.92a1.771,1.771,0,0,0,.293.511.7.7,0,0,0,.365.134V60.7H26.923v-.137a1.6,1.6,0,0,0,.414-.07c.063-.028.095-.095.095-.2a.8.8,0,0,0-.038-.189,2.01,2.01,0,0,0-.1-.285L27,59.114H25.067q-.286.721-.342.879a.834.834,0,0,0-.055.252.259.259,0,0,0,.151.256,1.173,1.173,0,0,0,.349.064V60.7Zm3.161-1.886L26.036,56.8l-.845,2.021Z" transform="translate(10.816 25.429)" fill="#d4d0ca"/>
        <path id="Path_12" data-name="Path 12" d="M29.784,60.538a1.05,1.05,0,0,0,.523-.144c.083-.068.121-.24.121-.515V56.614a.758.758,0,0,0-.118-.511.855.855,0,0,0-.526-.147v-.137h2.072v.137a.982.982,0,0,0-.543.131.606.606,0,0,0-.138.478V60.09a.389.389,0,0,0,.041.192.234.234,0,0,0,.181.087c.057.007.115.013.176.017h.342a3.607,3.607,0,0,0,1.324-.162,1.693,1.693,0,0,0,.668-.826h.186l-.36,1.274H29.784Z" transform="translate(13.583 25.457)" fill="#d4d0ca"/>
        <path id="Path_13" data-name="Path 13" d="M38.828,60.538a1.07,1.07,0,0,0,.526-.144c.08-.068.119-.24.119-.515V56.614a.767.767,0,0,0-.118-.511.857.857,0,0,0-.527-.147v-.137h3.9l.023,1.048h-.185a1.036,1.036,0,0,0-.281-.628,1.555,1.555,0,0,0-.83-.143h-1c-.108,0-.173.017-.2.051a.367.367,0,0,0-.038.2v1.638h1.133a.878.878,0,0,0,.6-.138,1.242,1.242,0,0,0,.207-.563h.172v1.695h-.172a1.2,1.2,0,0,0-.213-.564.85.85,0,0,0-.594-.14H40.219V60.09c0,.147.047.232.138.258a4.486,4.486,0,0,0,.829.041,2.772,2.772,0,0,0,1.1-.165,1.488,1.488,0,0,0,.639-.789h.2L42.8,60.675H38.828Z" transform="translate(17.708 25.457)" fill="#d4d0ca"/>
        <path id="Path_14" data-name="Path 14" d="M44.674,59.231a2.717,2.717,0,0,0,.435.789,1.374,1.374,0,0,0,1.085.511.892.892,0,0,0,.607-.221.78.78,0,0,0,.256-.62.864.864,0,0,0-.258-.623,4.358,4.358,0,0,0-.708-.505l-.628-.392a2.273,2.273,0,0,1-.45-.361,1.121,1.121,0,0,1-.31-.767,1.251,1.251,0,0,1,.367-.925,1.322,1.322,0,0,1,.978-.368,1.9,1.9,0,0,1,.6.122,2.483,2.483,0,0,0,.4.124.244.244,0,0,0,.189-.063.487.487,0,0,0,.079-.183h.151l.162,1.561h-.176a1.648,1.648,0,0,0-.574-.984,1.354,1.354,0,0,0-.785-.28.813.813,0,0,0-.524.178.592.592,0,0,0-.226.492.716.716,0,0,0,.173.483,2.171,2.171,0,0,0,.533.427l.646.4a3.384,3.384,0,0,1,.852.686,1.188,1.188,0,0,1,.245.746,1.241,1.241,0,0,1-.435.964,1.616,1.616,0,0,1-1.114.387,2.2,2.2,0,0,1-.709-.13,2.835,2.835,0,0,0-.425-.13.175.175,0,0,0-.173.08.445.445,0,0,0-.06.167h-.163l-.218-1.562Z" transform="translate(20.297 25.424)" fill="#d4d0ca"/>
        <path id="Path_15" data-name="Path 15" d="M49.656,55.818h4.153l.036,1.248h-.176a1.483,1.483,0,0,0-.326-.766,1.34,1.34,0,0,0-.837-.178H52.1v3.757c0,.282.044.457.134.526a1.2,1.2,0,0,0,.578.132v.137H50.67v-.137a1.023,1.023,0,0,0,.582-.153.967.967,0,0,0,.114-.593V56.122h-.411a1.4,1.4,0,0,0-.831.176,1.288,1.288,0,0,0-.329.767h-.181Z" transform="translate(22.627 25.456)" fill="#d4d0ca"/>
        <path id="Path_16" data-name="Path 16" d="M54.742,60.7v-.137a.6.6,0,0,0,.424-.213,5.838,5.838,0,0,0,.486-.992l1.529-3.6h.146l1.829,4.161a1.729,1.729,0,0,0,.294.511.691.691,0,0,0,.365.134V60.7H57.948v-.137a1.607,1.607,0,0,0,.415-.07c.063-.028.095-.095.095-.2a.947.947,0,0,0-.036-.189,2.246,2.246,0,0,0-.1-.285l-.3-.706H56.093q-.288.721-.342.879a.791.791,0,0,0-.055.252.26.26,0,0,0,.15.256,1.186,1.186,0,0,0,.351.064V60.7ZM57.9,58.817,57.062,56.8l-.845,2.021Z" transform="translate(24.966 25.429)" fill="#d4d0ca"/>
        <path id="Path_17" data-name="Path 17" d="M60.307,55.818h4.15l.039,1.248h-.175a1.479,1.479,0,0,0-.331-.766,1.327,1.327,0,0,0-.834-.178h-.409v3.757c0,.282.045.457.132.526a1.218,1.218,0,0,0,.581.132v.137H61.319v-.137a1.01,1.01,0,0,0,.582-.153.975.975,0,0,0,.115-.593V56.122H61.6a1.4,1.4,0,0,0-.831.176,1.305,1.305,0,0,0-.332.767h-.178Z" transform="translate(27.484 25.456)" fill="#d4d0ca"/>
        <path id="Path_18" data-name="Path 18" d="M65.776,60.538a1.061,1.061,0,0,0,.523-.144q.122-.1.122-.515V56.614A.757.757,0,0,0,66.3,56.1a.859.859,0,0,0-.526-.147v-.137h3.9l.026,1.048h-.188a1.028,1.028,0,0,0-.278-.628A1.558,1.558,0,0,0,68.4,56.1h-1c-.109,0-.176.017-.2.051a.37.37,0,0,0-.036.2v1.638H68.3a.876.876,0,0,0,.6-.138,1.223,1.223,0,0,0,.208-.563h.172v1.695h-.172a1.218,1.218,0,0,0-.213-.564.852.852,0,0,0-.6-.14H67.167V60.09c0,.147.045.232.138.258a4.454,4.454,0,0,0,.827.041,2.78,2.78,0,0,0,1.1-.165,1.487,1.487,0,0,0,.638-.789h.2l-.332,1.241H65.776Z" transform="translate(29.998 25.457)" fill="#d4d0ca"/>
      </g>
    </g>
    <path id="Path_19" data-name="Path 19" d="M16.7,23.607H12.373v-.53H23.162l7.464,24.929,8.841-24.929H50.113v.53H45.79V56.88h4.323v.531h-14.5V56.88H39.9V23.607L27.774,57.8h-.427L17.222,23.607V56.88h4.47v.531H12.373V56.88H16.7Z" transform="translate(42.643 53.525)" fill="#d4d0ca"/>
    <g id="Group_16" data-name="Group 16" transform="translate(37 43)">
      <g id="Group_15" data-name="Group 15" clip-path="url(#clip-path)">
        <path id="Path_20" data-name="Path 20" d="M69.014,45H63.74v-.53H79.232V45H74.908V57.682h-.38a2.116,2.116,0,0,0-2.184-1.593c-.859,0-1.476.291-3.186,1.013a16.585,16.585,0,0,1-7.036,1.447c-9.411,0-15.922-6.992-15.922-17.313,0-11.861,8.84-18.756,15.542-18.756,2.091,0,3.329.48,5.8,1.446a6.71,6.71,0,0,0,2.568.674,1.4,1.4,0,0,0,1.424-.916h.379V33.715h-.379c-1.142-5.207-3.8-10.7-9.744-10.7-4.326,0-6.035,2.266-6.843,3.663-1.711,2.989-1.995,9.645-1.995,14.13,0,6.992.284,10.077,1.519,13.019,1.143,2.749,3.375,4.2,7.273,4.2,6.608,0,7.272-2.8,7.272-6.366Z" transform="translate(21.07 10.253)" fill="#d4d0ca"/>
      </g>
    </g>
    <rect id="Rectangle_32" data-name="Rectangle 32" width="0.651" height="49.183" transform="translate(97.594 67.754)" fill="#d4d0ca"/>
    <rect id="Rectangle_33" data-name="Rectangle 33" width="82.187" height="0.649" transform="translate(55.038 120.708)" fill="#d4d0ca"/>
  </g>
</svg>
