<svg xmlns="http://www.w3.org/2000/svg" xmlns:xlink="http://www.w3.org/1999/xlink" version="1.1" x="0px" y="0px" viewBox="0 0 100 125" enable-background="new 0 0 100 100" xml:space="preserve"><path d="M85.8,95.039H14.232C9.144,95.039,5,90.897,5,85.802V14.232C5,9.144,9.144,5,14.232,5H85.8c5.09,0,9.232,4.144,9.232,9.232  v71.569C95.032,90.897,90.896,95.039,85.8,95.039L85.8,95.039z M14.232,9.616c-2.549,0-4.616,2.077-4.616,4.616v71.569  c0,2.546,2.075,4.616,4.616,4.616H85.8c2.548,0,4.616-2.07,4.616-4.616V14.232c0-2.54-2.068-4.616-4.616-4.616H14.232z   M14.232,9.616"/><path d="M73.504,29.571H26.659c-1.984,0-3.592,1.607-3.592,3.592c0,1.986,1.608,3.593,3.592,3.593h46.845  c1.984,0,3.593-1.607,3.593-3.593C77.097,31.179,75.488,29.571,73.504,29.571z"/><path d="M26.536,53.611h46.843c1.984,0,3.591-1.609,3.591-3.592c0-1.985-1.606-3.594-3.591-3.594H26.536  c-1.986,0-3.594,1.608-3.594,3.594C22.942,52.002,24.549,53.611,26.536,53.611z"/><path d="M73.504,63.283H26.659c-1.984,0-3.592,1.608-3.592,3.591c0,1.985,1.608,3.594,3.592,3.594h46.845  c1.984,0,3.593-1.608,3.593-3.594C77.097,64.892,75.488,63.283,73.504,63.283z"/><text x="0" y="115" fill="#000000" font-size="5px" font-weight="bold" font-family="'Helvetica Neue', Helvetica, Arial-Unicode, Arial, Sans-serif">Created by TMD</text><text x="0" y="120" fill="#000000" font-size="5px" font-weight="bold" font-family="'Helvetica Neue', Helvetica, Arial-Unicode, Arial, Sans-serif">from the Noun Project</text></svg>